<svg xmlns="http://www.w3.org/2000/svg" width="256" height="256" viewBox="0 0 100 100"><rect width="100" height="100" rx="20" fill="#d0021b"></rect><path fill="#fff" d="M29.15 74.17L12.38 74.17L12.38 25.83L28.19 25.83Q36.05 25.83 40.02 29.08Q43.99 32.34 43.99 38.71L43.99 38.71Q43.99 42.10 42.06 44.70Q40.14 47.31 36.82 48.74L36.82 48.74Q40.74 49.83 43.01 52.91Q45.29 55.98 45.29 60.23L45.29 60.23Q45.29 66.73 41.07 70.45Q36.85 74.17 29.15 74.17L29.15 74.17ZM29.38 51.56L18.76 51.56L18.76 68.96L29.28 68.96Q33.73 68.96 36.30 66.65Q38.88 64.34 38.88 60.29L38.88 60.29Q38.88 51.56 29.38 51.56L29.38 51.56ZM18.76 31.07L18.76 46.45L28.38 46.45Q32.57 46.45 35.08 44.36Q37.58 42.26 37.58 38.68L37.58 38.68Q37.58 34.69 35.26 32.88Q32.93 31.07 28.19 31.07L28.19 31.07L18.76 31.07ZM71.48 74.17L54.71 74.17L54.71 25.83L70.52 25.83Q78.39 25.83 82.36 29.08Q86.32 32.34 86.32 38.71L86.32 38.71Q86.32 42.10 84.40 44.70Q82.47 47.31 79.15 48.74L79.15 48.74Q83.07 49.83 85.34 52.91Q87.62 55.98 87.62 60.23L87.62 60.23Q87.62 66.73 83.40 70.45Q79.19 74.17 71.48 74.17L71.48 74.17ZM71.71 51.56L61.09 51.56L61.09 68.96L71.62 68.96Q76.06 68.96 78.64 66.65Q81.21 64.34 81.21 60.29L81.21 60.29Q81.21 51.56 71.71 51.56L71.71 51.56ZM61.09 31.07L61.09 46.45L70.72 46.45Q74.90 46.45 77.41 44.36Q79.92 42.26 79.92 38.68L79.92 38.68Q79.92 34.69 77.59 32.88Q75.27 31.07 70.52 31.07L70.52 31.07L61.09 31.07Z"></path></svg>